<svg width="35" height="35" viewBox="0 0 35 35" fill="none" xmlns="http://www.w3.org/2000/svg">
<path d="M17.2824 0.0688477C7.82221 0.0688477 0.0820312 7.82286 0.0820312 17.3729C0.0820312 26.0076 6.37738 33.1745 14.5992 34.4697V22.381H10.2303V17.3729H14.5992V13.5563C14.5992 9.22169 17.162 6.83849 21.1009 6.83849C22.9758 6.83849 24.9366 7.16661 24.9366 7.16661V11.4322H22.7694C20.6365 11.4322 19.9657 12.7619 19.9657 14.1262V17.3729H24.7474L23.9734 22.381H19.9657V34.4697C24.0189 33.827 27.7097 31.7506 30.3718 28.6154C33.034 25.4802 34.492 21.4928 34.4828 17.3729C34.4828 7.82286 26.7427 0.0688477 17.2824 0.0688477Z" fill="#7C7C7C"/>
</svg>
